<svg width="129" height="28" viewBox="0 0 129 28" fill="none" xmlns="http://www.w3.org/2000/svg">
<g clip-path="url(#clip0)">
<path d="M129 0H0V28H129V0Z" stroke="#121D2E"/>
<path fill-rule="evenodd" clip-rule="evenodd" d="M60.911 22.3002H65.518V20.2242H63.563V8.46023H65.518V6.38623H60.911V22.3002ZM70.482 19.0002H73.236V9.34423H77.044V7.10023H66.674V9.34423H70.482V19.0002ZM86.87 14.4612C86.8893 13.5851 86.6753 12.7195 86.25 11.9532C85.8505 11.2499 85.2573 10.6761 84.541 10.3002C83.7767 9.91589 82.9323 9.71789 82.0769 9.72241C81.2214 9.72693 80.3792 9.93384 79.619 10.3262C78.8923 10.7123 78.2863 11.2916 77.868 12.0002C77.439 12.7345 77.2184 13.5719 77.23 14.4222C77.2159 15.2768 77.4396 16.1184 77.876 16.8532C78.3154 17.5752 78.9526 18.1562 79.712 18.5272C80.5638 18.9416 81.502 19.1472 82.449 19.1272C83.1483 19.1749 83.8494 19.067 84.502 18.8113C85.1546 18.5556 85.7423 18.1583 86.223 17.6482L84.812 16.1182C84.5181 16.4092 84.1684 16.6378 83.784 16.7902C83.3783 16.9383 82.9488 17.0101 82.517 17.0022C81.9015 17.0244 81.2947 16.8519 80.783 16.5092C80.326 16.1924 80.0093 15.7112 79.899 15.1662H86.818C86.852 14.7242 86.869 14.4862 86.869 14.4522L86.87 14.4612ZM82.127 11.7242C82.6735 11.7077 83.2071 11.892 83.627 12.2422C84.0393 12.5957 84.3058 13.0896 84.375 13.6282H79.866C79.9311 13.086 80.1982 12.5883 80.614 12.2342C81.0406 11.8877 81.5777 11.7067 82.127 11.7242ZM92.227 19.1362C93.0159 19.1533 93.8016 19.0293 94.547 18.7702C95.1298 18.5748 95.6453 18.2184 96.034 17.7422C96.3706 17.3103 96.5505 16.7768 96.544 16.2292C96.5779 15.6593 96.389 15.0984 96.017 14.6652C95.6803 14.3007 95.2516 14.0337 94.776 13.8922C94.1725 13.7223 93.5594 13.5888 92.94 13.4922C92.4438 13.4298 91.9543 13.3217 91.478 13.1692C91.3449 13.1358 91.2271 13.0583 91.1438 12.9493C91.0604 12.8404 91.0164 12.7064 91.019 12.5692C91.025 12.4376 91.0681 12.3103 91.1433 12.202C91.2185 12.0937 91.3227 12.0089 91.444 11.9572C91.8431 11.7747 92.2809 11.693 92.719 11.7192C93.6417 11.7117 94.5502 11.9462 95.354 12.3992L96.238 10.5122C95.7421 10.2345 95.2055 10.0368 94.648 9.92623C94.0143 9.78516 93.3672 9.71374 92.718 9.71323C91.945 9.69639 91.1757 9.82321 90.449 10.0872C89.8725 10.2901 89.3655 10.6525 88.987 11.1322C88.6543 11.5756 88.4784 12.117 88.487 12.6712C88.4482 13.2541 88.6404 13.8289 89.022 14.2712C89.368 14.6386 89.8046 14.9083 90.288 15.0532C90.8958 15.2265 91.515 15.3572 92.141 15.4442C92.6202 15.4904 93.0932 15.5873 93.552 15.7332C93.68 15.7623 93.7947 15.8333 93.8778 15.9349C93.9609 16.0365 94.0078 16.163 94.011 16.2942C94.011 16.8496 93.45 17.1272 92.328 17.1272C91.7527 17.1245 91.1805 17.0417 90.628 16.8812C90.1066 16.7415 89.6084 16.5266 89.149 16.2432L88.265 18.1432C88.8009 18.4733 89.3869 18.7141 90 18.8562C90.7275 19.0437 91.4758 19.1381 92.227 19.1372V19.1362ZM103.872 16.6882C103.564 16.9197 103.186 17.0396 102.801 17.0282C102.646 17.0381 102.492 17.0152 102.346 16.9611C102.201 16.907 102.069 16.8229 101.959 16.7142C101.746 16.4671 101.639 16.1466 101.659 15.8212V12.1002H103.937V10.0602H101.66V7.83123H99.008V10.0582H97.6V12.1002H99.011V15.8572C98.9792 16.304 99.0419 16.7526 99.1951 17.1735C99.3483 17.5944 99.5885 17.9784 99.9 18.3002C100.603 18.8935 101.507 19.192 102.425 19.1332C102.829 19.135 103.233 19.0863 103.625 18.9882C103.97 18.9078 104.297 18.7608 104.586 18.5552L103.872 16.6882ZM105.826 20.5302H114.326V19.0002H105.826V20.5302ZM120.24 22.3002V6.38623H115.65V8.46023H117.588V20.2242H115.65V22.3002H120.24Z" fill="#121D2E"/>
<path fill-rule="evenodd" clip-rule="evenodd" d="M0 0H46.281L53.995 14.56L46.281 28H0V0Z" fill="#121D2E"/>
<path fill-rule="evenodd" clip-rule="evenodd" d="M16.062 7.10014H10.911V19.0001H13.665V15.7191H16.065C17.0066 15.7414 17.9422 15.5649 18.811 15.2011C19.5432 14.8896 20.166 14.367 20.6 13.7001C21.0284 13.0159 21.2471 12.2212 21.229 11.4141C21.2487 10.6053 21.03 9.80853 20.6 9.12314C20.1614 8.459 19.5381 7.9376 18.807 7.62314C17.9397 7.2553 17.0038 7.07699 16.062 7.10014ZM15.909 13.4751H13.665V9.34414H15.909C16.5826 9.29665 17.2515 9.48627 17.8 9.88014C18.0185 10.0697 18.1904 10.3071 18.3024 10.5738C18.4144 10.8405 18.4636 11.1294 18.446 11.4181C18.4626 11.7044 18.4129 11.9907 18.3009 12.2546C18.1888 12.5186 18.0174 12.7532 17.8 12.9401C17.2525 13.3328 16.5851 13.522 15.913 13.4751H15.909ZM26.041 11.0611V9.85414H23.508V19.0001H26.16V14.6821C26.1334 14.3364 26.177 13.9888 26.288 13.6602C26.399 13.3317 26.5752 13.0289 26.806 12.7701C27.0456 12.5497 27.3271 12.3796 27.6338 12.27C27.9404 12.1604 28.2659 12.1135 28.591 12.1321C28.693 12.1321 28.8913 12.1435 29.186 12.1661V9.71814C28.5492 9.70593 27.9164 9.82154 27.325 10.0581C26.812 10.2646 26.3675 10.6111 26.042 11.0581L26.041 11.0611ZM35.541 19.1361C36.4387 19.1527 37.3265 18.9465 38.125 18.5361C38.8632 18.1537 39.4811 17.5743 39.91 16.8621C40.3463 16.1273 40.57 15.2857 40.556 14.4311C40.5708 13.5769 40.3482 12.7353 39.913 12.0001C39.4841 11.288 38.8662 10.7085 38.128 10.3261C37.323 9.92922 36.4375 9.72278 35.54 9.72278C34.6425 9.72278 33.757 9.92922 32.952 10.3261C32.2101 10.7066 31.5888 11.2863 31.158 12.0001C30.7216 12.735 30.498 13.5766 30.512 14.4311C30.4979 15.2857 30.7216 16.1273 31.158 16.8621C31.5888 17.5761 32.21 18.1558 32.952 18.5361C33.7536 18.9459 34.6438 19.152 35.544 19.1361H35.541ZM35.541 16.9601C35.2279 16.9696 34.9162 16.9132 34.6263 16.7945C34.3364 16.6758 34.0746 16.4975 33.858 16.2711C33.6312 16.0228 33.4559 15.732 33.3421 15.4155C33.2283 15.099 33.1783 14.7631 33.195 14.4271C33.1783 14.0912 33.2283 13.7553 33.3421 13.4388C33.4559 13.1223 33.6312 12.8315 33.858 12.5831C34.0747 12.357 34.3365 12.1789 34.6264 12.0604C34.9163 11.9418 35.2279 11.8855 35.541 11.8951C35.853 11.885 36.1635 11.941 36.4522 12.0596C36.7409 12.1782 37.0013 12.3566 37.216 12.5831C37.6691 13.0876 37.9042 13.7509 37.87 14.4281C37.9042 15.1054 37.6691 15.7687 37.216 16.2731C37.0013 16.4998 36.7411 16.6784 36.4524 16.7972C36.1636 16.916 35.853 16.9722 35.541 16.9621V16.9601Z" fill="white"/>
</g>
<defs>
<clipPath id="clip0">
<rect width="129" height="28" fill="white"/>
</clipPath>
</defs>
</svg>
